<?xml version="1.0" encoding="utf-8"?>
<!-- Generator: Adobe Illustrator 22.0.0, SVG Export Plug-In . SVG Version: 6.00 Build 0)  -->
<svg version="1.1"
	 id="SVGRoot" inkscape:version="0.92.3 (unknown)" sodipodi:docname="logo.svg" xmlns:cc="http://creativecommons.org/ns#" xmlns:dc="http://purl.org/dc/elements/1.1/" xmlns:inkscape="http://www.inkscape.org/namespaces/inkscape" xmlns:rdf="http://www.w3.org/1999/02/22-rdf-syntax-ns#" xmlns:sodipodi="http://sodipodi.sourceforge.net/DTD/sodipodi-0.dtd" xmlns:svg="http://www.w3.org/2000/svg"
	 xmlns="http://www.w3.org/2000/svg" xmlns:xlink="http://www.w3.org/1999/xlink" x="0px" y="0px" viewBox="0 0 500 86.7"
	 style="enable-background:new 0 0 500 86.7;" xml:space="preserve">
<style type="text/css">
	.st0{fill:#DF3E2E;}
	.st1{fill:#8C2A91;}
	.st2{fill:url(#SVGID_1_);}
</style>
<sodipodi:namedview  bordercolor="#666666" borderopacity="1.0" id="base" inkscape:current-layer="layer1" inkscape:cx="125" inkscape:cy="80" inkscape:document-units="px" inkscape:pageopacity="0.0" inkscape:pageshadow="2" inkscape:window-height="713" inkscape:window-maximized="1" inkscape:window-width="1299" inkscape:window-x="67" inkscape:window-y="27" inkscape:zoom="2.1496046" pagecolor="#ffffff" showgrid="false">
	</sodipodi:namedview>
<g>
	<g>
		<path class="st0" d="M39,60.6c-8.9-2.1-15.6-10.3-15.6-19.8c0-11.3,9.2-20.5,20.5-20.5c9.7,0,17.8,6.7,20,15.8H74
			c-2.3-14.5-14.9-25.7-30-25.7c-16.7,0-30.5,13.6-30.5,30.5c0,15.2,11.2,27.8,25.7,30V60.6H39z"/>
		<path class="st1" d="M63.7,45.5c-1.7,7.4-7.7,13.4-15.2,15.2v10.2c13-2.1,23.2-12.3,25.3-25.3C73.9,45.5,63.7,45.5,63.7,45.5z"/>
		<circle class="st1" cx="43.6" cy="40.5" r="10.4"/>
	</g>
	
		<linearGradient id="SVGID_1_" gradientUnits="userSpaceOnUse" x1="214.7262" y1="-1048.3096" x2="214.7262" y2="-1106.5568" gradientTransform="matrix(1 0 0 -1 0 -1030.3334)">
		<stop  offset="4.926110e-03" style="stop-color:#E53D26"/>
		<stop  offset="1" style="stop-color:#844B9C"/>
	</linearGradient>
	<path class="st2" d="M119.6,37.3h18.5v9.7v8.4c-4.2,4.9-9.6,7.7-17.1,7.7c-13.4,0-20.1-7.3-22.2-16.2c-0.4-1.9-0.7-3.8-0.7-5.8
		c0-12.2,7.5-23.3,22.8-23.3c5.8,0,11.6,2.1,16.1,6.6l-5,5.1c-2.8-2.8-7.2-4.3-10.9-4.3c-9.2,0-14.8,7-14.8,16c0,2,0.3,3.9,1.1,5.8
		c1.8,4.7,6,8.6,13.8,8.6c3.4,0,6.4-0.7,9.7-3.5v-5.1v-2.4h-11.1v-7.2H119.6z M152.5,35.4l-0.5-3.5h-7V47v15.3h7.5V47.1v-0.8
		c0-5.5,3.6-7.7,7.5-7.7c2.4,0,3.9,0.7,5.4,2l3.4-6.5c-1.6-1.6-4.7-2.8-7.8-2.8C157.9,31.1,154.8,31.6,152.5,35.4z M196,31.9h7.2V47
		v15.3h-7l-0.4-4.4c-1.8,3.5-6.5,5.2-9.9,5.4c-9,0-15.7-5.5-15.7-16.1l0,0c0-10.5,7-16,15.8-16c4.1,0,8,1.9,9.7,4.9L196,31.9z
		 M195.7,47.1c0-4.6-2.9-9.2-8.9-9.2c-5,0-9,3.4-9,9.2l0,0c0,5.8,4.1,9.2,9,9.2C192.7,56.4,195.7,51.8,195.7,47.1z M244.4,47.1
		C244.4,47.2,244.4,47.2,244.4,47.1c0,8.9-5.5,16-15.4,16c-3.3,0-8-1-10.1-4.3v17.6h-7.5V47.1V31.9h7l0.5,4.2
		c2.3-3.4,6.4-4.9,9.9-4.9C238.1,31.3,244.4,38.3,244.4,47.1z M236.8,47.2L236.8,47.2c0-4.7-3.3-8.6-8.6-8.6c-5.4,0-8.6,3.8-8.6,8.5
		l0,0c0,4.7,3.5,8.6,8.6,8.6C233.3,55.8,236.8,51.9,236.8,47.2z M267.6,31.5c-3.5,0-6.7,1.1-9.5,4.6V19.2h-7.5v27.9v15.3h7.5V47.1
		v-0.3c0-4.6,3.1-8.4,7.5-8.4c4.1,0,6.9,2.3,6.9,7.8v0.7v15.3h7.5V47.1v-0.8C280,37.3,276.2,31.5,267.6,31.5z M287,23.4
		c0,5.8,8.9,5.8,8.9,0S287,17.6,287,23.4z M287.7,47.1v15.3h7.5V47.1V31.8h-7.5V47.1z M320.7,47.1l-0.2-0.2l10-14.7v-0.3h-9
		l-5.9,10.3l-5.9-10.3h-9v0.3l10,14.7l-0.2,0.2L300,62v0.2h9l6.6-10.1l6.6,10.1h9V62L320.7,47.1z"/>
	<g>
		<g>
			<g>
				<path class="st1" d="M368,36.1c-5.1-0.7-9.6-1.6-9.6-5.4c0-3.3,2.8-5.7,8.9-5.7c4.7,0,8.8,2.3,10.3,4.9l6.5-3.4
					c-3.3-6.6-10.3-8.5-16.9-8.5c-8,0-16.8,3.6-16.8,12.6c0,9.7,8.1,12,16.9,13.1c4.2,0.4,7.7,1.5,9.2,3.6c0.5,0.8,0.8,1.6,0.8,2.7
					c0,4.7-4.9,6.5-9.9,6.5c-5.2,0-10.3-2.1-12.2-6.9l-6.7,3.5c3.3,7.8,10,10.5,18.8,10.5c9.6,0,18.1-4.2,18.1-13.8
					c0-1-0.2-1.9-0.3-2.7C383.7,39.1,376.2,37,368,36.1z"/>
			</g>
			<g>
				<g>
					<path class="st1" d="M408.6,31.4c-3.5,0-7.5,1.5-9.9,4.9l-0.5-4.2h-6.9v15v29.3h7.5V58.8c2.1,3.4,6.9,4.3,10.1,4.3
						c9.7,0,15.4-7,15.4-16V47C424.1,38.3,417.9,31.4,408.6,31.4z M408,55.9c-5.1,0-8.6-3.9-8.6-8.6v-0.2c0.2-4.6,3.3-8.4,8.6-8.4
						c5.4,0,8.5,3.8,8.6,8.4v0.2C416.7,52,413.2,55.9,408,55.9z"/>
				</g>
			</g>
			<g>
				<g>
					<path class="st1" d="M444.3,31.5c-9.6,0-15.7,7-15.7,15.7v0.2c0,8.8,5.9,15.8,15.8,15.8s15.8-7,15.8-15.8v-0.2
						C460.1,38.5,453.9,31.5,444.3,31.5z M444.3,56.2c-5.5,0-8.2-4.3-8.2-8.9v-0.2c0.2-4.4,2.8-8.8,8.2-8.8c5,0,8.1,4.3,8.2,8.8v0.2
						C452.7,51.9,449.9,56.2,444.3,56.2z"/>
				</g>
			</g>
			<g>
				<path class="st1" d="M484.4,55.1c-1.1,0.5-2.4,1-3.6,1c-2.3,0-3.9-1.3-3.9-4.3v-4.6v-8.5h8.4v-6.5h-8.4v-8.6l-7.5,0.8v7.8h-5.7
					v6.5h5.7v8.5v4.6c0,7.5,4.3,11.4,10.9,11.1c2.3,0,4.1-0.4,6.2-1.3L484.4,55.1z"/>
			</g>
		</g>
	</g>
</g>
</svg>
